<?xml version="1.0" standalone="no"?>
<!DOCTYPE svg PUBLIC "-//W3C//DTD SVG 20010904//EN"
 "http://www.w3.org/TR/2001/REC-SVG-20010904/DTD/svg10.dtd">
<svg version="1.0" xmlns="http://www.w3.org/2000/svg"
 width="128.000000pt" height="128.000000pt" viewBox="0 0 128.000000 128.000000"
 preserveAspectRatio="xMidYMid meet">
<metadata>
Created by potrace 1.11, written by Peter Selinger 2001-2013
</metadata>
<g transform="translate(0.000000,128.000000) scale(0.100000,-0.100000)"
fill="#000000" stroke="none">
<path d="M596 1176 c-13 -22 -49 -90 -80 -151 -32 -60 -66 -119 -75 -130 -21
-24 -131 -204 -134 -219 -3 -16 -75 -129 -150 -235 -53 -75 -64 -96 -55 -110
12 -19 384 -254 447 -282 54 -24 58 -24 66 2 6 17 9 18 22 7 15 -12 15 -11 4
10 -10 18 -9 22 4 22 8 0 14 -5 12 -11 -1 -6 5 -14 13 -16 13 -4 13 -3 0 6
-13 9 -12 12 8 17 12 4 22 10 22 15 0 5 5 8 11 6 21 -4 20 20 -1 26 -25 7 -36
5 -32 -6 1 -5 -3 -5 -9 -1 -7 4 -9 3 -6 -3 4 -6 0 -14 -9 -17 -15 -6 -15 -4
-2 16 27 43 32 53 34 66 2 8 6 17 10 20 4 4 4 -1 1 -10 -4 -11 0 -19 14 -23
10 -4 17 -11 13 -16 -3 -6 -12 -5 -22 2 -11 9 -11 6 2 -7 13 -13 20 -15 23 -6
3 6 9 9 15 6 5 -3 4 3 -3 14 -7 12 -16 19 -20 16 -21 -13 -11 64 11 86 3 3 20
37 39 75 19 39 40 74 48 78 7 4 13 12 13 17 0 15 191 393 289 570 l30 55 -35
31 c-19 18 -49 35 -67 38 -17 3 -41 8 -52 10 -26 5 -263 56 -290 62 -73 17
-84 14 -109 -30z m104 -1056 c0 -5 -10 -15 -22 -21 -22 -12 -22 -11 -5 8 9 11
14 23 10 28 -5 4 -2 5 5 1 6 -4 12 -11 12 -16z"/>
<path d="M760 300 c-8 -5 -12 -12 -9 -15 4 -3 12 1 19 10 14 17 11 19 -10 5z"/>
<path d="M781 276 c-9 -11 -9 -16 0 -22 7 -4 9 -3 5 4 -3 6 2 15 11 21 10 6
13 11 7 11 -6 0 -17 -6 -23 -14z"/>
<path d="M986 278 c3 -5 10 -6 15 -3 13 9 11 12 -6 12 -8 0 -12 -4 -9 -9z"/>
<path d="M745 240 c-3 -5 -2 -10 4 -10 5 0 13 5 16 10 3 6 2 10 -4 10 -5 0
-13 -4 -16 -10z"/>
<path d="M820 240 c-8 -5 -10 -10 -5 -10 6 0 17 5 25 10 8 5 11 10 5 10 -5 0
-17 -5 -25 -10z"/>
<path d="M775 230 c-7 -12 19 -24 37 -17 7 3 3 6 -10 6 -13 1 -20 5 -17 11 3
6 4 10 1 10 -3 0 -8 -5 -11 -10z"/>
<path d="M729 208 c12 -12 23 -29 26 -39 7 -21 32 -32 32 -13 0 7 -3 11 -6 9
-4 -2 -17 12 -30 31 -13 19 -28 34 -33 34 -5 0 0 -10 11 -22z"/>
<path d="M767 200 c19 -20 25 -22 35 -11 11 11 10 13 0 6 -8 -4 -23 1 -35 11
-22 18 -22 18 0 -6z"/>
<path d="M874 206 c1 -8 5 -18 8 -22 4 -3 5 1 4 10 -1 8 -5 18 -8 22 -4 3 -5
-1 -4 -10z"/>
<path d="M834 202 c3 -5 0 -13 -6 -15 -9 -4 -10 -6 -1 -6 17 -1 25 16 12 25
-7 4 -9 3 -5 -4z"/>
<path d="M810 166 c0 -2 7 -7 16 -10 8 -3 12 -2 9 4 -6 10 -25 14 -25 6z"/>
</g>
</svg>
